<?xml version="1.0" encoding="utf-8"?>
<!-- Generator: Adobe Illustrator 22.1.0, SVG Export Plug-In . SVG Version: 6.00 Build 0)  -->
<svg version="1.1" id="Layer_2" xmlns="http://www.w3.org/2000/svg" xmlns:xlink="http://www.w3.org/1999/xlink" x="0px" y="0px"
	 viewBox="0 0 297 297" style="enable-background:new 0 0 297 297;" xml:space="preserve">
<style type="text/css">
	.st0{fill:#231F20;}
	.st1{fill:#8ED0DC;}
	.st2{fill:#FFFFFF;}
	.st3{fill:#12235C;}
</style>
<path class="st0" d="M37.6,126.7l66.2-16.5c0,0,15.9-67.1,86.8-67.9c0,0,48.2-2.3,77.2,44.4c0,0,25.1-8,29.1,20.7V211
	c0,0,1.6,41-43.9,43.9H43.9c0,0-40.9,0.8-43.9-43.9v-62.5c0,0-0.4-3,2.8-4.6L37.6,126.7z"/>
<path class="st1" d="M115.6,156.8l45-20.8c0,0-4.6-31.6,30.1-34.8c0,0,14,0.3,22.8,10.3l45-20.8c0,0-23.5-39.9-67.8-38.4
	c0,0-74.1-0.5-79.2,79.2C111.4,131.6,112.1,148.5,115.6,156.8z"/>
<path class="st2" d="M170.5,131.4c0.1-1.5,0.2-17.3,20.2-20c0,0,8.2,0.2,12.9,4.7L170.5,131.4z"/>
<path class="st2" d="M47.1,134.8l54.7-13.7c0,0-2.1,28.4,4.4,39.9l-31.8,14.7L47.1,134.8z"/>
<path class="st3" d="M10.2,151.7l26.9-13.4l31.2,46.9c0,0,2.6,3.6,6.4,1.8l195.4-90.2c0,0,14.4-5.1,16.6,10.6V211
	c0,0-0.5,31.6-33.7,33.6H43.9c0,0-31.1-0.3-33.6-33.6V151.7z"/>
</svg>
