<?xml version="1.0" encoding="utf-8"?>
<!-- Generator: Adobe Illustrator 22.1.0, SVG Export Plug-In . SVG Version: 6.00 Build 0)  -->
<svg version="1.1" id="Layer_2" xmlns="http://www.w3.org/2000/svg" xmlns:xlink="http://www.w3.org/1999/xlink" x="0px" y="0px"
	 viewBox="0 0 612 792" style="enable-background:new 0 0 612 792;" xml:space="preserve">
<style type="text/css">
	.st0{fill:#491A0D;}
	.st1{fill:#FBDAE6;}
	.st2{fill:#006A58;}
	.st3{fill:#F5802A;}
</style>
<path class="st0" d="M164.7,338l11.3-13.3l-86-93.3c0,0-4-8,2.7-12c6.7-4,83.3-38,83.3-38s8.7-6.7,15.3,0c6.7,6.7,58,65.3,58,65.3
	l13.3-14l239.3,254c0,0,20,15.3,18.7,49.3c0,0,4.7,27.3-19.3,47.3c0,0-15.3,29.3-52,28.7c0,0-24.7,0.7-40.7-16L164.7,338z"/>
<polygon class="st1" points="116.7,230 181.3,200.7 235.3,258.7 190,309.3 "/>
<polygon class="st2" points="192,337.3 220.7,306 387.3,484 360,516 "/>
<polygon class="st2" points="235.3,292 262.7,260.7 428.7,438.7 401.3,470 "/>
<polygon class="st3" points="373.3,529.3 443.3,454 478.7,491.7 407.3,567.3 "/>
<path class="st0" d="M410,513l13.5-15.5c0,0,9.5-6.5,13.5,0c0,0,8,4.8,0,13.2l-11,11.8c0,0-5,10-13.5,0
	C412.5,522.5,408.5,521,410,513z"/>
<path class="st2" d="M421,581l70.5-75c0,0,13.5,13.5,11,30c0,0,3.5,17.5-14,34.5c0,0-16,23-39.5,24C449,594.5,434.7,594.7,421,581z"
	/>
</svg>
