<?xml version="1.0" encoding="utf-8"?>
<!-- Generator: Adobe Illustrator 22.1.0, SVG Export Plug-In . SVG Version: 6.00 Build 0)  -->
<svg version="1.1" id="Layer_1" xmlns="http://www.w3.org/2000/svg" xmlns:xlink="http://www.w3.org/1999/xlink" x="0px" y="0px"
	 viewBox="0 0 612 792" style="enable-background:new 0 0 612 792;" xml:space="preserve">
<style type="text/css">
	.st0{fill:#C2B59B;}
	.st1{fill:#F15A29;}
</style>
<path class="st0" d="M237.1,421.3l-59.4-59.4c-4.7-4.7-4.7-12.3,0-17l96.2-96.2c4.7-4.7,12.3-4.7,17,0l59.4,59.4
	c4.7,4.7,4.7,12.3,0,17l-96.2,96.2C249.4,425.9,241.8,425.9,237.1,421.3z"/>
<path class="st0" d="M236.9,421.5L177,361.6c-4.7-4.7-4.7-12.3,0-17l17.2-17.2c4.7-4.7,12.3-4.7,17,0l59.9,59.9
	c4.7,4.7,4.7,12.3,0,17l-17.2,17.2C249.2,426.2,241.6,426.2,236.9,421.5z"/>
<rect x="218.5" y="272.2" transform="matrix(0.7071 0.7071 -0.7071 0.7071 310.539 -97.1845)" class="st1" width="108.2" height="108.2"/>
<g>
	<path d="M322.5,320.2L322.5,320.2c3.5,3.5,3.6,9.2,0.1,12.7l-34.1,34.8c-3.5,3.5-9.2,3.6-12.7,0.1l0,0c-3.5-3.5-3.6-9.2-0.1-12.7
		l34.1-34.8C313.3,316.8,319,316.7,322.5,320.2z"/>
	<path d="M285.6,327.9L285.6,327.9c2.7,2.7,2.8,7.1,0.1,9.9l-9.7,9.9c-2.7,2.7-7.1,2.8-9.9,0.1l0,0c-2.7-2.7-2.8-7.1-0.1-9.9
		l9.7-9.9C278.4,325.2,282.8,325.2,285.6,327.9z"/>
</g>
</svg>
