<?xml version="1.0" encoding="utf-8"?>
<!-- Generator: Adobe Illustrator 22.1.0, SVG Export Plug-In . SVG Version: 6.00 Build 0)  -->
<svg id="pencilSVG" version="1.1" id="Layer_1" xmlns="http://www.w3.org/2000/svg" xmlns:xlink="http://www.w3.org/1999/xlink" x="0px" y="0px"
	 viewBox="0 0 612 792" style="enable-background:new 0 0 612 792;" xml:space="preserve">
<style type="text/css">
	.st0{fill:#4D240E;stroke:#000000;stroke-miterlimit:10;}
	.st1{fill:#C2B59B;stroke:#000000;stroke-miterlimit:10;}
	.st2{stroke:#000000;stroke-miterlimit:10;}
	.st3{fill:#898442;stroke:#000000;stroke-miterlimit:10;}
	.st4{fill:#C26728;stroke:#000000;stroke-miterlimit:10;}
	.st5{font-family:'MyriadPro-Bold';}
	.st6{font-size:14px;}

	#pencilSVG:hover { background-color:#fff }
</style>
<path class="pencilIcon" d="M332.7,448.7l-20.2,12.9c-5.6,3.5-13,1.9-16.6-3.7L117.6,177.9c-3.5-5.6-1.9-13,3.7-16.6l20.2-12.9
	c5.6-3.5,13-1.9,16.6,3.7l178.3,280.1C339.9,437.7,338.3,445.2,332.7,448.7z"/>
<polygon class="st1" points="336.4,432.1 295.9,457.9 316.2,477 344,459 "/>
<polygon class="st2" points="344,493 344,459 316.2,477 "/>
<line class="st3" x1="117.6" y1="177.9" x2="158.1" y2="152.1"/>
<rect x="222.9" y="138.2" transform="matrix(-0.8435 0.5371 -0.5371 -0.8435 580.854 440.319)" class="st4" width="6.9" height="333.2"/>
<text transform="matrix(0.5463 0.8376 -0.8376 0.5463 212.0597 267.3853)" class="st5 st6">Apsara HB2</text>
</svg>
