<?xml version="1.0" encoding="utf-8"?>
<!-- Generator: Adobe Illustrator 22.1.0, SVG Export Plug-In . SVG Version: 6.00 Build 0)  -->
<svg version="1.1" id="Layer_2" xmlns="http://www.w3.org/2000/svg" xmlns:xlink="http://www.w3.org/1999/xlink" x="0px" y="0px"
	 viewBox="0 0 612 792" style="enable-background:new 0 0 612 792;" xml:space="preserve">
<style type="text/css">
	.st0{fill:#090043;}
	.st1{fill:#8A8A8A;}
	.st2{fill:#393939;}
	.st3{fill:#EF3A24;}
</style>
<path class="st0" d="M135,373.3c0,0-10.3-8.7,0-20c10.3-11.3,40.3-40.7,40.3-40.7s16.7-17.3,50-19.3c0,0,25.3-1.3,47.3,16.7l82-80
	l14.7-57.3c0,0,5.3-17.3,17.3-14.7c0,0,6.7,0,14,8.7l142.7,142c0,0,10,14.7-5.3,23.3l-65.3,14.7l-79.3,80.7c0,0,16,24.7,14,46
	c0,0,2,31.3-17.3,50.7c-19.3,19.3-42.7,43.3-42.7,43.3s-7.3,11.3-20,0c-12.7-11.3-70-69.3-70-69.3L124,632.7H80c0,0-10-0.7-10-8.7
	s-2.7-42-2.7-42l135.3-136.7"/>
<polygon class="st1" points="98,604 98,594.7 225.3,466.7 230.7,472 "/>
<polygon class="st2" points="235.3,477.3 108.7,604 98,604 230.7,472 "/>
<path class="st3" d="M169,364l34-30c0,0,8.5-7.5,24-7c0,0,17.5-1,31.5,12.5L367,447c0,0,8.5,13,8,27.5c0,0,1.5,14.5-5.5,25l-31,33.5
	L169,364z"/>
<polygon class="st3" points="297.5,331 369.5,258.5 442,331 369.8,404 "/>
<polygon class="st3" points="388,231.5 394.5,204 499,306 471,314 "/>
</svg>
