<?xml version="1.0" encoding="utf-8"?>
<!-- Generator: Adobe Illustrator 22.1.0, SVG Export Plug-In . SVG Version: 6.00 Build 0)  -->
<svg version="1.1" id="Layer_1" xmlns="http://www.w3.org/2000/svg" xmlns:xlink="http://www.w3.org/1999/xlink" x="0px" y="0px"
	 viewBox="0 0 612 792" style="enable-background:new 0 0 612 792;" xml:space="preserve">
<style type="text/css">
	.st0{fill:#BCBEC0;stroke:#000000;stroke-miterlimit:10;}
	.st1{fill:#FFFFFF;stroke:#000000;stroke-miterlimit:10;}
	.st2{fill:#808285;stroke:#000000;stroke-miterlimit:10;}
</style>
<path class="st0" d="M480.3,487L433,534.3c-6.9,6.9-18,6.9-24.8,0L104.4,230.5c-6.9-6.9-6.9-18,0-24.8l47.3-47.3
	c6.9-6.9,18-6.9,24.8,0l303.8,303.8C487.1,469,487.1,480.1,480.3,487z"/>
<circle class="st1" cx="432" cy="486" r="22.5"/>
<g>
	<rect x="132.5" y="185" transform="matrix(0.7071 0.7071 -0.7071 0.7071 193.9221 -33.1694)" class="st2" width="9" height="65"/>
	<rect x="182.5" y="235" transform="matrix(0.7071 0.7071 -0.7071 0.7071 243.9221 -53.88)" class="st2" width="9" height="65"/>
	<rect x="205.5" y="258" transform="matrix(0.7071 0.7071 -0.7071 0.7071 266.9221 -63.4069)" class="st2" width="9" height="65"/>
	
		<rect x="224.9" y="277.4" transform="matrix(0.7071 0.7071 -0.7071 0.7071 286.3541 -71.4559)" class="st2" width="9" height="65"/>
	
		<rect x="291.9" y="344.4" transform="matrix(0.7071 0.7071 -0.7071 0.7071 353.3541 -99.2082)" class="st2" width="9" height="65"/>
	<rect x="311" y="363.5" transform="matrix(0.7071 0.7071 -0.7071 0.7071 372.4221 -107.1065)" class="st2" width="9" height="65"/>
	
		<rect x="353.9" y="406.4" transform="matrix(0.7071 0.7071 -0.7071 0.7071 415.3541 -124.8895)" class="st2" width="9" height="65"/>
	
		<rect x="333.8" y="386.3" transform="matrix(0.7071 0.7071 -0.7071 0.7071 395.2662 -116.5688)" class="st2" width="9" height="65"/>
	
		<rect x="269.9" y="322.4" transform="matrix(0.7071 0.7071 -0.7071 0.7071 331.3541 -90.0955)" class="st2" width="9" height="65"/>
	<rect x="247.5" y="300" transform="matrix(0.7071 0.7071 -0.7071 0.7071 308.9221 -80.8039)" class="st2" width="9" height="65"/>
	<rect x="159.5" y="212" transform="matrix(0.7071 0.7071 -0.7071 0.7071 220.9221 -44.3531)" class="st2" width="9" height="65"/>
</g>
<g>
	
		<rect x="230.4" y="224.8" transform="matrix(0.734 0.6791 -0.6791 0.734 227.7318 -94.4434)" class="st2" width="8" height="37.3"/>
	
		<rect x="206.4" y="200.8" transform="matrix(0.734 0.6791 -0.6791 0.734 205.0482 -84.5278)" class="st2" width="8" height="37.3"/>
	
		<rect x="252.1" y="244.7" transform="matrix(0.734 0.6791 -0.6791 0.734 246.9649 -103.8826)" class="st2" width="8" height="37.3"/>
	
		<rect x="317.1" y="309.3" transform="matrix(0.734 0.6791 -0.6791 0.734 308.1271 -130.8583)" class="st2" width="8" height="37.3"/>
	<rect x="292.4" y="287" transform="matrix(0.734 0.6791 -0.6791 0.734 286.4442 -120.0143)" class="st2" width="8" height="37.3"/>
	<rect x="271.5" y="266" transform="matrix(0.734 0.6791 -0.6791 0.734 266.6115 -111.4197)" class="st2" width="8" height="37.3"/>
	<rect x="183" y="175.7" transform="matrix(0.734 0.6791 -0.6791 0.734 181.7661 -75.2915)" class="st2" width="8" height="37.3"/>
</g>
</svg>
