<?xml version="1.0" encoding="utf-8"?>
<!-- Generator: Adobe Illustrator 22.1.0, SVG Export Plug-In . SVG Version: 6.00 Build 0)  -->
<svg version="1.1" id="Layer_2" xmlns="http://www.w3.org/2000/svg" xmlns:xlink="http://www.w3.org/1999/xlink" x="0px" y="0px"
	 viewBox="0 0 460 460" style="enable-background:new 0 0 460 460;" xml:space="preserve">
<style type="text/css">
	.st0{fill:#FF5959;}
	.st1{fill:#E57373;}
	.st2{fill:#BFBFBF;}
	.st3{fill:#FFFFFF;}
	.st4{fill:#808080;}
	.st5{fill:#404040;}
</style>
<path class="st0" d="M42.3,0l375.3,0v119.3c0,0-53.6,27.1-51.8,110.7s46.4,109.8,51.8,110.7l0,119.3H42.3l0-119.3
	c0,0,52.9-25.7,51.8-110.7c0,0,5.6-76.5-51.8-110.7L42.3,0z"/>
<rect x="137.4" y="37.9" class="st1" width="52.6" height="384.1"/>
<rect x="215" y="37.9" class="st2" width="105" height="384.1"/>
<rect x="190" y="37.9" class="st3" width="25" height="384.1"/>
<circle class="st4" cx="270" cy="229.8" r="32.6"/>
<polygon class="st5" points="252.7,219.8 259.8,212.7 270,222.9 280.2,212.7 287.3,219.8 277.1,230 287.3,240.2 280.2,247.3 
	270,237.1 259.8,247.3 252.7,240.2 262.9,230 "/>
</svg>
