<?xml version="1.0" encoding="utf-8"?>
<!-- Generator: Adobe Illustrator 22.1.0, SVG Export Plug-In . SVG Version: 6.00 Build 0)  -->
<svg version="1.1" id="Layer_2" xmlns="http://www.w3.org/2000/svg" xmlns:xlink="http://www.w3.org/1999/xlink" x="0px" y="0px"
	 viewBox="0 0 512 512" style="enable-background:new 0 0 512 512;" xml:space="preserve">
<style type="text/css">
	.st0{fill:#231F20;}
	.st1{fill:#FFFFFF;}
	.st2{fill:#AAF2AD;}
	.st3{fill:#3D9941;}
	.st4{fill:#FF66D2;}
</style>
<path class="st0" d="M75.5,458.8v43c0,0,1.4,10.2,10.2,10.2s340.5,0,340.5,0s10.2-1.4,10.2-10.2s0-43,0-43h33.4
	c0,0,10.2-1.1,10.2-10.2s0-48.9,0-48.9s-0.1-46-49.6-49.6h-355c0,0-36.2,2.9-43.6,43.9v54.6c0,0,0.3,10.2,10.2,10.2
	S75.5,458.8,75.5,458.8z"/>
<rect x="95.9" y="458.8" class="st1" width="320.1" height="32.8"/>
<path class="st2" d="M52.3,438.4h407.4v-38.7c0,0,0.3-26.7-29.2-29.2h-349c0,0-26.4-0.2-29.2,29.2V438.4z"/>
<path class="st0" d="M76.2,406.5H272c0,0,9.4,1.4,10.2,10.2c0,0-1.2,10.2-10.2,10.2H76.2c0,0-9.7-1.5-10.2-10.2
	C66,416.7,66.8,406.5,76.2,406.5z"/>
<path class="st0" d="M216,350.1V221.5h-9.5c0,0-7.8,0.9-9.9-7.8L162,67.9c0,0-3.5-61.9,65.3-67.9h57.5c0,0,59.8-1.4,65.5,65.5
	l-34.9,148.1c0,0-0.4,7.8-9.9,7.8H296v128.6l-20.4,0V221.5h-39.2v128.6H216z"/>
<polygon class="st3" points="214.6,201.1 297.4,201.1 327.2,75.7 184.8,75.7 "/>
<path class="st4" d="M183.3,55.3h145.4c0,0-8.2-34.9-44-34.9s-57.5,0-57.5,0S192.6,20.2,183.3,55.3z"/>
<path d="M306,406.5h7.4c0,0,9.9,0.9,10.2,10.2c0,0,0.8,9.1-10.2,10.2s-7.4,0-7.4,0s-9.4-0.5-10.2-10.2S306,406.5,306,406.5z"/>
</svg>
