<?xml version="1.0" encoding="utf-8"?>
<!-- Generator: Adobe Illustrator 22.1.0, SVG Export Plug-In . SVG Version: 6.00 Build 0)  -->
<svg version="1.1" id="Layer_2" xmlns="http://www.w3.org/2000/svg" xmlns:xlink="http://www.w3.org/1999/xlink" x="0px" y="0px"
	 viewBox="0 0 612 792" style="enable-background:new 0 0 612 792;" xml:space="preserve">
<style type="text/css">
	.st0{fill:#231F20;}
	.st1{fill:#92C83E;}
	.st2{fill:#FFFFFF;}
	.st3{fill:#FBAA19;}
	.st4{fill:#EFACCD;}
	.st5{fill:#BF1E4B;}
</style>
<path class="st0" d="M93.3,356L480,224.7c0,0,19.3-9.3,28,9.3l21.3,64.7c0,0,6.7,14-7.3,23.3l6,22c0,0,5.3,15.3-10,23.3L440,396
	l-4-8.7l-20,8.7l2.7,5.3L270,452.7c0,0-8.7,6-19.3,0l-8-7.3l-6.7,4c0,0,4,17.3,0,22.7h276c0,0,14.7,2,16,16.7l2.9,64.7
	c0,0-4.3,12.7-14.9,16H152.7c0,0-12.7-4-15.3-14L80.7,374C80.7,374,82.8,359.6,93.3,356z"/>
<path class="st1" d="M100.7,368.7l382.7-129.3c0,0,8-7.3,12,5.3s19.3,55.3,19.3,55.3s6,8.7-6,12.7c-12,4-260,88-260,88
	s-14,6-12.7,18.7l1.3,9.3l-6.7,5.3c0,0-24.7-26.7-46-22c0,0-48,5.3-46,54l-12,4l-29.3-91.3C97.3,378.7,95.1,370.6,100.7,368.7z"/>
<polygon class="st2" points="132.7,368.7 144,364.7 150,377.3 137.3,382.7 "/>
<polygon class="st2" points="157.3,359.3 403.3,276 408.7,289.3 163.3,373.7 "/>
<path class="st3" d="M254,415.3L508.7,330l4.7,16.7c0,0,4,5.3-4.7,10l-73.3,26l0.7,4.7l-20,8.7l-2-8l-147.3,49.3c0,0-9.3,4.7-12.7-2
	l-2.7-8.7C251.3,426.7,249.8,416.7,254,415.3z"/>
<circle class="st4" cx="187.5" cy="461.3" r="35.3"/>
<path class="st5" d="M132.7,484.7l8.7-4c0,0,17.1,33.3,46.2,30.7c0,0,33.4-0.7,41.8-24.7h280c0,0,5.2,0,4.9,6.7V550
	c0,0,0.4,5.3-4.9,6l-352-3.3c0,0-6.7,1.3-7.3-4.7L132.7,484.7z"/>
</svg>
